<mxfile host="app.diagrams.net" agent="Mozilla/5.0 (Windows NT 10.0; Win64; x64; rv:130.0) Gecko/20100101 Firefox/130.0" version="24.7.16">
  <diagram id="C5RBs43oDa-KdzZeNtuy" name="Page-1">
    <mxGraphModel dx="1366" dy="781" grid="1" gridSize="10" guides="1" tooltips="1" connect="1" arrows="1" fold="1" page="1" pageScale="1" pageWidth="827" pageHeight="1169" math="0" shadow="0">
      <root>
        <mxCell id="WIyWlLk6GJQsqaUBKTNV-0" />
        <mxCell id="WIyWlLk6GJQsqaUBKTNV-1" parent="WIyWlLk6GJQsqaUBKTNV-0" />
        <mxCell id="YGptp0DmgvDaWWcgnBFP-26" value="" style="edgeStyle=orthogonalEdgeStyle;rounded=0;orthogonalLoop=1;jettySize=auto;html=1;" edge="1" parent="WIyWlLk6GJQsqaUBKTNV-1" source="YGptp0DmgvDaWWcgnBFP-0" target="YGptp0DmgvDaWWcgnBFP-24">
          <mxGeometry relative="1" as="geometry" />
        </mxCell>
        <mxCell id="YGptp0DmgvDaWWcgnBFP-0" value="Start" style="ellipse;whiteSpace=wrap;html=1;" vertex="1" parent="WIyWlLk6GJQsqaUBKTNV-1">
          <mxGeometry x="400" y="90" width="80" height="40" as="geometry" />
        </mxCell>
        <mxCell id="YGptp0DmgvDaWWcgnBFP-13" value="" style="edgeStyle=orthogonalEdgeStyle;rounded=0;orthogonalLoop=1;jettySize=auto;html=1;" edge="1" parent="WIyWlLk6GJQsqaUBKTNV-1" source="YGptp0DmgvDaWWcgnBFP-1" target="YGptp0DmgvDaWWcgnBFP-3">
          <mxGeometry relative="1" as="geometry">
            <mxPoint x="490" y="360" as="targetPoint" />
            <Array as="points" />
          </mxGeometry>
        </mxCell>
        <mxCell id="YGptp0DmgvDaWWcgnBFP-1" value="&lt;div&gt;Input Nilai 1 - 5&lt;/div&gt;" style="shape=parallelogram;perimeter=parallelogramPerimeter;whiteSpace=wrap;html=1;fixedSize=1;" vertex="1" parent="WIyWlLk6GJQsqaUBKTNV-1">
          <mxGeometry x="382.5" y="290" width="115" height="40" as="geometry" />
        </mxCell>
        <mxCell id="YGptp0DmgvDaWWcgnBFP-6" value="" style="edgeStyle=orthogonalEdgeStyle;rounded=0;orthogonalLoop=1;jettySize=auto;html=1;entryX=0.5;entryY=0;entryDx=0;entryDy=0;" edge="1" parent="WIyWlLk6GJQsqaUBKTNV-1" source="YGptp0DmgvDaWWcgnBFP-3" target="YGptp0DmgvDaWWcgnBFP-22">
          <mxGeometry relative="1" as="geometry">
            <mxPoint x="440" y="490.0000000000001" as="targetPoint" />
          </mxGeometry>
        </mxCell>
        <mxCell id="YGptp0DmgvDaWWcgnBFP-3" value="&lt;div&gt;set max = *ptr;&lt;/div&gt;&lt;div&gt;menyetel variable max untuk nilai max dengan looping&lt;br&gt;&lt;/div&gt;" style="rounded=1;whiteSpace=wrap;html=1;fontSize=12;glass=0;strokeWidth=1;shadow=0;arcSize=0;" vertex="1" parent="WIyWlLk6GJQsqaUBKTNV-1">
          <mxGeometry x="360" y="370" width="160" height="80" as="geometry" />
        </mxCell>
        <mxCell id="YGptp0DmgvDaWWcgnBFP-34" value="" style="edgeStyle=orthogonalEdgeStyle;rounded=0;orthogonalLoop=1;jettySize=auto;html=1;entryX=1;entryY=0.5;entryDx=0;entryDy=0;" edge="1" parent="WIyWlLk6GJQsqaUBKTNV-1" source="YGptp0DmgvDaWWcgnBFP-22" target="YGptp0DmgvDaWWcgnBFP-3">
          <mxGeometry relative="1" as="geometry">
            <mxPoint x="695.5" y="580" as="targetPoint" />
            <Array as="points">
              <mxPoint x="540" y="545" />
              <mxPoint x="540" y="410" />
            </Array>
          </mxGeometry>
        </mxCell>
        <mxCell id="YGptp0DmgvDaWWcgnBFP-37" value="" style="edgeStyle=orthogonalEdgeStyle;rounded=0;orthogonalLoop=1;jettySize=auto;html=1;" edge="1" parent="WIyWlLk6GJQsqaUBKTNV-1" source="YGptp0DmgvDaWWcgnBFP-22" target="YGptp0DmgvDaWWcgnBFP-36">
          <mxGeometry relative="1" as="geometry" />
        </mxCell>
        <mxCell id="YGptp0DmgvDaWWcgnBFP-22" value="&lt;div&gt;jika nilai&amp;nbsp;&lt;/div&gt;&lt;div&gt;array pointer&amp;nbsp;&lt;/div&gt;&lt;div&gt;ada yang max &lt;/div&gt;" style="rhombus;whiteSpace=wrap;html=1;shadow=0;fontFamily=Helvetica;fontSize=12;align=center;strokeWidth=1;spacing=6;spacingTop=-4;" vertex="1" parent="WIyWlLk6GJQsqaUBKTNV-1">
          <mxGeometry x="360" y="490" width="160" height="110" as="geometry" />
        </mxCell>
        <mxCell id="YGptp0DmgvDaWWcgnBFP-27" value="" style="edgeStyle=orthogonalEdgeStyle;rounded=0;orthogonalLoop=1;jettySize=auto;html=1;entryX=0.5;entryY=0;entryDx=0;entryDy=0;" edge="1" parent="WIyWlLk6GJQsqaUBKTNV-1" source="YGptp0DmgvDaWWcgnBFP-24" target="YGptp0DmgvDaWWcgnBFP-1">
          <mxGeometry relative="1" as="geometry" />
        </mxCell>
        <mxCell id="YGptp0DmgvDaWWcgnBFP-24" value="&lt;div&gt;for( int i = 0; i &amp;lt; 5; i++)&lt;/div&gt;&lt;div&gt;Untuk Melooping 5 inputan dalam satu array&lt;br&gt;&lt;/div&gt;" style="rounded=1;whiteSpace=wrap;html=1;arcSize=1;" vertex="1" parent="WIyWlLk6GJQsqaUBKTNV-1">
          <mxGeometry x="360" y="170" width="160" height="80" as="geometry" />
        </mxCell>
        <mxCell id="YGptp0DmgvDaWWcgnBFP-35" value="True" style="text;html=1;align=center;verticalAlign=middle;resizable=0;points=[];autosize=1;strokeColor=none;fillColor=none;" vertex="1" parent="WIyWlLk6GJQsqaUBKTNV-1">
          <mxGeometry x="540" y="470" width="50" height="30" as="geometry" />
        </mxCell>
        <mxCell id="YGptp0DmgvDaWWcgnBFP-40" value="" style="edgeStyle=orthogonalEdgeStyle;rounded=0;orthogonalLoop=1;jettySize=auto;html=1;" edge="1" parent="WIyWlLk6GJQsqaUBKTNV-1" source="YGptp0DmgvDaWWcgnBFP-36" target="YGptp0DmgvDaWWcgnBFP-39">
          <mxGeometry relative="1" as="geometry" />
        </mxCell>
        <mxCell id="YGptp0DmgvDaWWcgnBFP-36" value="Output Nilai Max" style="shape=parallelogram;perimeter=parallelogramPerimeter;whiteSpace=wrap;html=1;fixedSize=1;" vertex="1" parent="WIyWlLk6GJQsqaUBKTNV-1">
          <mxGeometry x="382.5" y="650" width="115" height="40" as="geometry" />
        </mxCell>
        <mxCell id="YGptp0DmgvDaWWcgnBFP-38" value="False" style="text;html=1;align=center;verticalAlign=middle;whiteSpace=wrap;rounded=0;" vertex="1" parent="WIyWlLk6GJQsqaUBKTNV-1">
          <mxGeometry x="430" y="605" width="60" height="30" as="geometry" />
        </mxCell>
        <mxCell id="YGptp0DmgvDaWWcgnBFP-39" value="Start" style="ellipse;whiteSpace=wrap;html=1;" vertex="1" parent="WIyWlLk6GJQsqaUBKTNV-1">
          <mxGeometry x="400" y="730" width="80" height="40" as="geometry" />
        </mxCell>
      </root>
    </mxGraphModel>
  </diagram>
</mxfile>
